PathFileType	4	(X/Y/Z)	/Users/niels/Desktop/University/Third Semester/Perception and Action/Exam/Gymnastics Motion Tracking/Code for Gym Tracking/Analyzed Data/Webcam_Backflip/id8_1_pure_Sports2D/id8_1_pure_Sports2D_px_person00.trc
DataRate	CameraRate	NumFrames	NumMarkers	Units	OrigDataRate	OrigDataStartFrame	OrigNumFrames
29.8125	29.8125	7	22	m	29.8125	0	160
Frame#	Time	Hip			RHip			RKnee			RAnkle			RBigToe			RSmallToe			RHeel			LHip			LKnee			LAnkle			LBigToe			LSmallToe			LHeel			Neck			Head			Nose			RShoulder			RElbow			RWrist			LShoulder			LElbow			LWrist		
		X1	Y1	Z1	X2	Y2	Z2	X3	Y3	Z3	X4	Y4	Z4	X5	Y5	Z5	X6	Y6	Z6	X7	Y7	Z7	X8	Y8	Z8	X9	Y9	Z9	X10	Y10	Z10	X11	Y11	Z11	X12	Y12	Z12	X13	Y13	Z13	X14	Y14	Z14	X15	Y15	Z15	X16	Y16	Z16	X17	Y17	Z17	X18	Y18	Z18	X19	Y19	Z19	X20	Y20	Z20	X21	Y21	Z21	X22	Y22	Z22
0	0.0	0.9837238357378313	-0.5763939621373381	0.0	0.9850537591383879	-0.5737286205515509	0.0	0.9797475262371204	-0.6749910836588173	0.0	0.9664225093187788	-0.7709153356712621	0.0	0.9970751485790263	-0.7908874313504678	0.0	0.9890844652213756	-0.7948873378081879	0.0	0.9584240215513928	-0.7855616539129768	0.0	0.9837188691220474	-0.5710632506825465	0.0	0.9797527121284549	-0.6736533670058562	0.0	0.9677552496890428	-0.7669102521332882	0.0	0.9984126276861347	-0.7868829904693196	0.0	0.994415092631573	-0.7855500875746605	0.0	0.9584293238012034	-0.7775723482421282	0.0	0.9970720380022711	-0.4445503254339491	0.0	1.006402768014642	-0.38062126271456337	0.0	1.0237157227716742	-0.4139182750491982	0.0	0.9984003107684438	-0.4525377106446449	0.0	1.0689758184446736	-0.45250838256911685	0.0	1.1288912626259708	-0.445825073857162	0.0	0.9890796756526473	-0.4512047877235041	0.0	1.0596525626210835	-0.4565098667533753	0.0	1.122253001691222	-0.4444983881768884	0.0
1	0.03354297693920335	0.9827553086277214	-0.5774731781914567	0.0	0.9846439027453399	-0.5746324357453153	0.0	0.9789410271393282	-0.676356326682055	0.0	0.9666228560408427	-0.7727721985705278	0.0	0.9979797246298747	-0.7916149651383728	0.0	0.9908936410743525	-0.7955233855995046	0.0	0.9585748868179023	-0.7868553419255099	0.0	0.9822980421200493	-0.5721373535696046	0.0	0.9785670798365995	-0.6744525802679942	0.0	0.9677632349323589	-0.7673680100668872	0.0	0.9979889728654817	-0.7868754828468221	0.0	0.9940193727325575	-0.7848605887948048	0.0	0.9586873935852616	-0.7787414872803939	0.0	0.9971877665898325	-0.4471446421660568	0.0	1.0063929698482394	-0.38213513108275726	0.0	1.0245493813810223	-0.41662689960411964	0.0	1.0001877943229418	-0.455747774027019	0.0	1.0661486883209186	-0.4680791673443415	0.0	1.1254046974631335	-0.47456531470869234	0.0	0.987423906101308	-0.4541795801213511	0.0	1.0534883229251226	-0.4702539795338287	0.0	1.1186668059903269	-0.47350420925198117	0.0
2	0.0670859538784067	0.9820340069806321	-0.5786953056795312	0.0	0.9842914220348058	-0.5756984043881282	0.0	0.9782901734136981	-0.6776257497437707	0.0	0.9667168844260614	-0.7745752138024825	0.0	0.9990114516676667	-0.7924882435198726	0.0	0.9926607553067113	-0.7962740273207176	0.0	0.9586092148831123	-0.7882432115583167	0.0	0.9811286455500866	-0.5734308847472451	0.0	0.9776211690946057	-0.6753860168507566	0.0	0.9676898139210578	-0.768064276481093	0.0	0.997723552426463	-0.7871971434286269	0.0	0.9936290888018591	-0.7846272555741692	0.0	0.9587596979453024	-0.7801141049586885	0.0	0.9973434916500172	-0.4496147327115604	0.0	1.0065717846033413	-0.3839111406479815	0.0	1.0253839200755213	-0.41931602036622106	0.0	1.0016701715867473	-0.4589458273700472	0.0	1.0623621084873094	-0.48318255246540104	0.0	1.1201114908978147	-0.5024022573554885	0.0	0.9859053878367113	-0.4572059602097994	0.0	1.0463847421888297	-0.4841292416217006	0.0	1.113135568510309	-0.5014490881046817	0.0
3	0.10062893081761004	0.9817426587040254	-0.5801973922611113	0.0	0.9841154460684411	-0.5771152683433237	0.0	0.9778777105045655	-0.6788073564225304	0.0	0.9667205664983942	-0.7762786178415103	0.0	1.000297658062184	-0.7936133602792758	0.0	0.9943441938485885	-0.7972300788835732	0.0	0.9585439523003736	-0.789764612707362	0.0	0.9804659623563003	-0.5751548863616818	0.0	0.9770634383835037	-0.6765623536095673	0.0	0.967541079465922	-0.7691543547983575	0.0	0.9978245875953046	-0.7880370224463591	0.0	0.9934302661956069	-0.7851856312933517	0.0	0.9585782479592192	-0.7817691868123826	0.0	0.997644895655626	-0.4518083119880059	0.0	1.0070257926027149	-0.3860487113391232	0.0	1.0262486137914508	-0.4219537995602669	0.0	1.002645578584214	-0.46209815361853795	0.0	1.0569487504604578	-0.49728524640034105	0.0	1.1116855133917565	-0.528310487741056	0.0	0.9848373479604084	-0.46027616181825237	0.0	1.0381233383282178	-0.49773483241909566	0.0	1.104177513036267	-0.5271444120365911	0.0
4	0.1341719077568134	0.9819612934034624	-0.5820517981733494	0.0	0.9842851877993971	-0.5790453071272886	0.0	0.9777154351965686	-0.6800077945540495	0.0	0.9667562905773912	-0.7778439557912431	0.0	1.0018177932502692	-0.7949944667662019	0.0	0.9958189624697051	-0.7984066251007572	0.0	0.9585245482126111	-0.7913975019707442	0.0	0.9804533998292139	-0.5774318084207904	0.0	0.9769145394032304	-0.6780261973148275	0.0	0.9674031759142615	-0.7706877326071112	0.0	0.9984230137810471	-0.7893792728988284	0.0	0.9936381320640658	-0.7866256549348791	0.0	0.9582051338188923	-0.7836777929411779	0.0	0.9982078820908362	-0.4535802097839536	0.0	1.0077986745839695	-0.3884766433200264	0.0	1.0271783108606505	-0.4244833604357587	0.0	1.0030684056897752	-0.46511099756883567	0.0	1.0496648026445696	-0.5098313507020902	0.0	1.0994871097521441	-0.5512224119953852	0.0	0.9845814715510219	-0.46331358974638415	0.0	1.0291908736882656	-0.5102106960503949	0.0	1.0911535714534017	-0.5493944308081551	0.0
5	0.16771488469601675	0.982669984995917	-0.5841782257958619	0.0	0.9849208764315953	-0.5814861680891729	0.0	0.9777904216848677	-0.6813104393605919	0.0	0.9669460372843286	-0.7791997842610756	0.0	1.0033504656725474	-0.7964984600793277	0.0	0.996881494390216	-0.7996918144481913	0.0	0.9587306176194345	-0.793044699913222	0.0	0.9810537202850623	-0.5801800796371158	0.0	0.977094776359021	-0.6797161664519235	0.0	0.9673800436402857	-0.7725532645922082	0.0	0.9994382975965574	-0.7910362059578298	0.0	0.9942633061030799	-0.7887342878688984	0.0	0.9577950739043753	-0.7857125464608968	0.0	0.9990927800051864	-0.4548306679318365	0.0	1.0090070470509491	-0.3909850812338073	0.0	1.0282077541685757	-0.42676872094007223	0.0	1.0030675177840163	-0.467793896392853	0.0	1.040608835022204	-0.5202629376184894	0.0	1.08343368819473	-0.5701368892561662	0.0	0.9853254546330237	-0.4661497869777539	0.0	1.0201627003326392	-0.5206214409893654	0.0	1.0743219394447918	-0.5672126243562049	0.0
6	0.20125786163522008	0.9837636379658585	-0.5863547413275312	0.0	0.9859797316655372	-0.5842088057012423	0.0	0.9780631234784735	-0.6826740822540843	0.0	0.9673296149875429	-0.7802068614476091	0.0	1.0045838479546005	-0.7979077228437266	0.0	0.9973668883393029	-0.8008922244008767	0.0	0.9592897346605607	-0.7945253733044513	0.0	0.9820991453938739	-0.583122385436075	0.0	0.9774702509034516	-0.6814663488265668	0.0	0.967528850654465	-0.7744198446191692	0.0	1.0005587627601051	-0.7927507526367996	0.0	0.9950844167295514	-0.7910771140788325	0.0	0.957536496682422	-0.7876214489916705	0.0	1.0003016690794517	-0.4555164728182072	0.0	1.01080645241432	-0.3932371009939595	0.0	1.0293997749587844	-0.42857458570186346	0.0	1.0028966490193798	-0.469885056332384	0.0	1.030164891351852	-0.5280367697474755	0.0	1.063987945951947	-0.584189689526879	0.0	0.9870199279066051	-0.46852189864467947	0.0	1.0114048410014145	-0.5281940048139917	0.0	1.05472770147309	-0.5799336663404773	0.0
